<svg width="32" height="32" viewBox="0 0 32 32" fill="none" xmlns="http://www.w3.org/2000/svg">
<path fill-rule="evenodd" clip-rule="evenodd" d="M30 21H27.0124C27.0124 19.4715 26.7229 18.0414 26.1439 16.7097C25.5649 15.378 24.7833 14.2142 23.799 13.2184C22.8147 12.2225 21.651 11.4409 20.3077 10.8734C18.9644 10.306 17.5285 10.0223 16 10.0223C14.4715 10.0223 13.0414 10.306 11.7097 10.8734C10.378 11.4409 9.21423 12.2225 8.21836 13.2184C7.22249 14.2142 6.43507 15.378 5.85608 16.7097C5.27709 18.0414 4.98759 19.4715 4.98759 21H2C2 19.1009 2.37055 17.3003 3.11166 15.598C3.85277 13.8958 4.85442 12.4078 6.11663 11.134C7.37883 9.86021 8.86103 8.85277 10.5633 8.11166C12.2655 7.37055 14.0777 7 16 7C17.9223 7 19.7287 7.37055 21.4194 8.11166C23.11 8.85277 24.5922 9.86021 25.866 11.134C27.1398 12.4078 28.1472 13.8958 28.8883 15.598C29.6294 17.3003 30 19.1009 30 21ZM18.9876 21.5558C18.9876 22.3896 18.6981 23.1017 18.1191 23.6923C17.5401 24.2829 16.8338 24.5782 16 24.5782C15.1662 24.5782 14.4599 24.2829 13.8809 23.6923C13.3019 23.1017 13.0124 22.3896 13.0124 21.5558C13.0124 20.7452 13.3019 20.0447 13.8809 19.4541C14.4599 18.8635 15.1662 18.5682 16 18.5682C16.8338 18.5682 17.5401 18.8635 18.1191 19.4541C18.6981 20.0447 18.9876 20.7452 18.9876 21.5558ZM21.6625 20.5831H24.6849C24.6849 19.402 24.4591 18.3019 24.0074 17.2829C23.5558 16.2638 22.9479 15.3722 22.1836 14.6079C21.4193 13.8437 20.5277 13.2357 19.5087 12.7841C18.4897 12.3325 17.3896 12.1067 16.2084 12.1067C15.0504 12.1067 13.9562 12.3325 12.9256 12.7841C11.8949 13.2357 10.9975 13.8437 10.2333 14.6079C9.46898 15.3722 8.86683 16.2638 8.4268 17.2829C7.98676 18.3019 7.76675 19.402 7.76675 20.5831H10.7891C10.7891 19.0777 11.3217 17.7924 12.3871 16.727C13.4524 15.6617 14.7262 15.129 16.2084 15.129C17.7138 15.129 18.9992 15.6617 20.0645 16.727C21.1299 17.7924 21.6625 19.0777 21.6625 20.5831Z" fill="white"/>
<mask id="mask0_25_3988" style="mask-type:alpha" maskUnits="userSpaceOnUse" x="2" y="7" width="28" height="18">
<path fill-rule="evenodd" clip-rule="evenodd" d="M30 21H27.0124C27.0124 19.4715 26.7229 18.0414 26.1439 16.7097C25.5649 15.378 24.7833 14.2142 23.799 13.2184C22.8147 12.2225 21.651 11.4409 20.3077 10.8734C18.9644 10.306 17.5285 10.0223 16 10.0223C14.4715 10.0223 13.0414 10.306 11.7097 10.8734C10.378 11.4409 9.21423 12.2225 8.21836 13.2184C7.22249 14.2142 6.43507 15.378 5.85608 16.7097C5.27709 18.0414 4.98759 19.4715 4.98759 21H2C2 19.1009 2.37055 17.3003 3.11166 15.598C3.85277 13.8958 4.85442 12.4078 6.11663 11.134C7.37883 9.86021 8.86103 8.85277 10.5633 8.11166C12.2655 7.37055 14.0777 7 16 7C17.9223 7 19.7287 7.37055 21.4194 8.11166C23.11 8.85277 24.5922 9.86021 25.866 11.134C27.1398 12.4078 28.1472 13.8958 28.8883 15.598C29.6294 17.3003 30 19.1009 30 21ZM18.9876 21.5558C18.9876 22.3896 18.6981 23.1017 18.1191 23.6923C17.5401 24.2829 16.8338 24.5782 16 24.5782C15.1662 24.5782 14.4599 24.2829 13.8809 23.6923C13.3019 23.1017 13.0124 22.3896 13.0124 21.5558C13.0124 20.7452 13.3019 20.0447 13.8809 19.4541C14.4599 18.8635 15.1662 18.5682 16 18.5682C16.8338 18.5682 17.5401 18.8635 18.1191 19.4541C18.6981 20.0447 18.9876 20.7452 18.9876 21.5558ZM21.6625 20.5831H24.6849C24.6849 19.402 24.4591 18.3019 24.0074 17.2829C23.5558 16.2638 22.9479 15.3722 22.1836 14.6079C21.4193 13.8437 20.5277 13.2357 19.5087 12.7841C18.4897 12.3325 17.3896 12.1067 16.2084 12.1067C15.0504 12.1067 13.9562 12.3325 12.9256 12.7841C11.8949 13.2357 10.9975 13.8437 10.2333 14.6079C9.46898 15.3722 8.86683 16.2638 8.4268 17.2829C7.98676 18.3019 7.76675 19.402 7.76675 20.5831H10.7891C10.7891 19.0777 11.3217 17.7924 12.3871 16.727C13.4524 15.6617 14.7262 15.129 16.2084 15.129C17.7138 15.129 18.9992 15.6617 20.0645 16.727C21.1299 17.7924 21.6625 19.0777 21.6625 20.5831Z" fill="white"/>
</mask>
<g mask="url(#mask0_25_3988)">
<rect width="32" height="32" fill="#007ED1"/>
</g>
</svg>
