<svg width="32" height="32" viewBox="0 0 32 32" fill="none" xmlns="http://www.w3.org/2000/svg">
<path fill-rule="evenodd" clip-rule="evenodd" d="M29.117 11.626L26.84 13.903C23.949 11.013 19.958 9.223 15.558 9.223C11.157 9.223 7.168 11.012 4.277 13.903L2 11.626C5.474 8.152 10.27 6 15.559 6C20.848 6 25.644 8.152 29.117 11.626ZM25.3728 15.3711L23.0948 17.6481C21.1638 15.7181 18.4988 14.5221 15.5588 14.5211C12.6188 14.5211 9.9528 15.7171 8.0228 17.6481L5.7448 15.3711C8.2598 12.8561 11.7308 11.2991 15.5588 11.2991C19.3868 11.2991 22.8588 12.8571 25.3728 15.3711ZM19.3487 21.3942L21.6267 19.1162C20.0717 17.5622 17.9257 16.5992 15.5587 16.5992C13.1917 16.5992 11.0457 17.5612 9.4907 19.1162L11.7677 21.3942C12.7387 20.4222 14.0797 19.8222 15.5587 19.8222C17.0367 19.8222 18.3777 20.4222 19.3487 21.3942ZM17.7717 24.2459C17.7717 23.0239 16.7817 22.0329 15.5587 22.0329C14.3357 22.0329 13.3457 23.0239 13.3457 24.2459C13.3457 25.4689 14.3357 26.4589 15.5587 26.4589C16.7817 26.4589 17.7717 25.4689 17.7717 24.2459Z" fill="#231F20"/>
<mask id="mask0_25_2712" style="mask-type:alpha" maskUnits="userSpaceOnUse" x="2" y="6" width="28" height="21">
<path fill-rule="evenodd" clip-rule="evenodd" d="M29.117 11.626L26.84 13.903C23.949 11.013 19.958 9.223 15.558 9.223C11.157 9.223 7.168 11.012 4.277 13.903L2 11.626C5.474 8.152 10.27 6 15.559 6C20.848 6 25.644 8.152 29.117 11.626ZM25.3728 15.3711L23.0948 17.6481C21.1638 15.7181 18.4988 14.5221 15.5588 14.5211C12.6188 14.5211 9.9528 15.7171 8.0228 17.6481L5.7448 15.3711C8.2598 12.8561 11.7308 11.2991 15.5588 11.2991C19.3868 11.2991 22.8588 12.8571 25.3728 15.3711ZM19.3487 21.3942L21.6267 19.1162C20.0717 17.5622 17.9257 16.5992 15.5587 16.5992C13.1917 16.5992 11.0457 17.5612 9.4907 19.1162L11.7677 21.3942C12.7387 20.4222 14.0797 19.8222 15.5587 19.8222C17.0367 19.8222 18.3777 20.4222 19.3487 21.3942ZM17.7717 24.2459C17.7717 23.0239 16.7817 22.0329 15.5587 22.0329C14.3357 22.0329 13.3457 23.0239 13.3457 24.2459C13.3457 25.4689 14.3357 26.4589 15.5587 26.4589C16.7817 26.4589 17.7717 25.4689 17.7717 24.2459Z" fill="white"/>
</mask>
<g mask="url(#mask0_25_2712)">
<rect width="32" height="32" fill="#007ED1"/>
</g>
</svg>
