<svg viewBox="0 0 1551 242" fill="none" xmlns="http://www.w3.org/2000/svg">
<path fill-rule="evenodd" clip-rule="evenodd" d="M591.327 1.03394V17.2644H568.612V98.6479H548.196V17.2644H525.481V1.03394H591.327Z" fill="white"/>
<path fill-rule="evenodd" clip-rule="evenodd" d="M600.798 98.6479V1.03394H654.065V16.0434H621.214V40.1114H651.497V55.1209H621.214V83.6439H655.149V98.6479H600.798Z" fill="white"/>
<path fill-rule="evenodd" clip-rule="evenodd" d="M668.536 98.6479V1.03394H688.952V82.4229H719.51V98.6479H668.536Z" fill="white"/>
<path fill-rule="evenodd" clip-rule="evenodd" d="M728.436 98.6479V1.03394H781.704V16.0434H748.852V40.1114H779.141V55.1209H748.852V83.6439H782.787V98.6479H728.436Z" fill="white"/>
<path fill-rule="evenodd" clip-rule="evenodd" d="M816.866 83.644H826.738C839.174 83.644 841.605 74.3159 841.605 49.8465C841.605 31.8615 841.605 16.0435 827.409 16.0435H816.866V83.644ZM796.45 1.03394H830.517C857.29 1.03394 862.295 18.8869 862.295 49.3074C862.295 64.3114 864.594 98.6479 829.708 98.6479H796.45V1.03394Z" fill="white"/>
<path fill-rule="evenodd" clip-rule="evenodd" d="M896.638 64.8504L871.079 1.03394H893.393L907.99 42.2729L923.549 1.03394H944.367L917.054 64.8504V98.6479H896.638V64.8504Z" fill="white"/>
<path fill-rule="evenodd" clip-rule="evenodd" d="M953.97 98.6479V1.03394H981.552L1007.51 68.6344H1007.78V1.03394H1026.84V98.6479H999.939L973.302 27.2634H973.038V98.6479H953.97Z" fill="white"/>
<path fill-rule="evenodd" clip-rule="evenodd" d="M1044.02 98.6479V1.03394H1097.29V16.0434H1064.44V40.1114H1094.73V55.1209H1064.44V83.6439H1098.38V98.6479H1044.02Z" fill="white"/>
<path fill-rule="evenodd" clip-rule="evenodd" d="M1145.95 98.648H1135.03V6.91345H1153.96L1177.08 83.9135H1177.34L1200.72 6.91345H1220.03V98.648H1208.34V17.0775H1208.09L1182.42 98.648H1171.37L1146.21 17.0775H1145.95V98.648Z" fill="white"/>
<path fill-rule="evenodd" clip-rule="evenodd" d="M1267.27 17.7154H1267.01L1252.64 66.6324H1282L1267.27 17.7154ZM1260.14 6.91345H1275.01L1304.88 98.648H1291.79L1285.17 76.7965H1249.72L1242.87 98.648H1231.05L1260.14 6.91345Z" fill="white"/>
<path fill-rule="evenodd" clip-rule="evenodd" d="M1327.2 46.2989H1344.74C1353.13 46.2989 1357.19 39.0609 1357.19 31.0584C1357.19 24.4474 1353.89 17.0774 1344.87 17.0774H1327.2V46.2989ZM1327.2 56.4685V98.648H1315.52V6.91345H1347.15C1363.42 6.91345 1369.13 18.348 1369.13 29.788C1369.13 40.5845 1363.16 48.8455 1352.36 50.7485V51.0015C1362.91 52.657 1366.72 56.2155 1367.36 74.635C1367.48 78.5785 1368.76 92.928 1370.53 98.648H1358.33C1355.03 92.2955 1355.79 80.3495 1354.78 68.1615C1353.89 56.9745 1344.87 56.4685 1340.92 56.4685H1327.2Z" fill="white"/>
<path fill-rule="evenodd" clip-rule="evenodd" d="M1386.65 98.6535H1398.34V6.91345H1386.65V98.6535Z" fill="white"/>
<path fill-rule="evenodd" clip-rule="evenodd" d="M1482.69 6.91345V98.648H1466.68L1430.47 19.1125H1430.21V98.648H1419.79V6.91345H1436.31L1472.02 85.437H1472.27V6.91345H1482.69Z" fill="white"/>
<path fill-rule="evenodd" clip-rule="evenodd" d="M1502.62 98.648V6.91345H1549.88V17.0775H1514.3V46.5575H1547.34V56.716H1514.3V88.484H1550.64V98.648H1502.62Z" fill="white"/>
<path fill-rule="evenodd" clip-rule="evenodd" d="M603.163 125.383V131.857H555.709V160.66H600.149V167.139H555.709V198.621H603.719V205.1H548.119V125.383H603.163Z" fill="white"/>
<path fill-rule="evenodd" clip-rule="evenodd" d="M614.212 147.488L632.296 198.066H632.522L650.386 147.488H657.646L636.097 205.1H628.611L606.397 147.488H614.212Z" fill="white"/>
<path fill-rule="evenodd" clip-rule="evenodd" d="M704.484 164.571C703.626 162.112 702.416 159.934 700.854 158.037C699.292 156.139 697.394 154.61 695.161 153.461C692.928 152.3 690.393 151.728 687.566 151.728C684.662 151.728 682.099 152.3 679.866 153.461C677.633 154.61 675.73 156.139 674.168 158.037C672.606 159.934 671.358 162.129 670.434 164.626C669.499 167.117 668.883 169.669 668.591 172.271H705.881C705.804 169.592 705.336 167.024 704.484 164.571ZM669.647 186.065C670.357 188.782 671.49 191.218 673.057 193.374C674.619 195.536 676.588 197.323 678.97 198.731C681.351 200.15 684.217 200.86 687.566 200.86C692.703 200.86 696.723 199.512 699.627 196.834C702.526 194.155 704.539 190.58 705.655 186.12H712.69C711.199 192.67 708.466 197.73 704.484 201.3C700.502 204.875 694.859 206.657 687.566 206.657C683.029 206.657 679.102 205.865 675.791 204.264C672.48 202.664 669.779 200.464 667.695 197.67C665.61 194.887 664.065 191.642 663.064 187.957C662.057 184.272 661.557 180.383 661.557 176.291C661.557 172.496 662.057 168.773 663.064 165.126C664.065 161.48 665.61 158.224 667.695 155.358C669.779 152.498 672.48 150.188 675.791 148.434C679.102 146.685 683.029 145.816 687.566 145.816C692.186 145.816 696.124 146.745 699.402 148.604C702.68 150.463 705.336 152.905 707.388 155.914C709.434 158.928 710.902 162.387 711.799 166.298C712.69 170.208 713.058 174.174 712.915 178.189H668.591C668.591 180.719 668.943 183.348 669.647 186.065Z" fill="white"/>
<path fill-rule="evenodd" clip-rule="evenodd" d="M728.766 147.488V160.99H728.986C730.774 156.31 733.546 152.702 737.308 150.166C741.064 147.636 745.552 146.481 750.761 146.707V153.741C747.56 153.593 744.656 154.022 742.049 155.023C739.447 156.029 737.198 157.459 735.295 159.318C733.397 161.188 731.929 163.399 730.889 165.968C729.844 168.536 729.327 171.341 729.327 174.394V205.1H722.287V147.488H728.766Z" fill="white"/>
<path fill-rule="evenodd" clip-rule="evenodd" d="M758.351 147.488L777.337 196.614L795.086 147.488H802.115L777.112 213.807C776.067 216.26 775.099 218.289 774.208 219.89C773.317 221.49 772.327 222.755 771.243 223.685C770.171 224.62 768.9 225.285 767.454 225.692C765.996 226.099 764.159 226.308 761.926 226.308C760.507 226.237 759.413 226.176 758.632 226.143C757.851 226.099 757.163 225.973 756.564 225.753V219.84C757.383 219.983 758.186 220.115 758.967 220.225C759.748 220.335 760.546 220.396 761.365 220.396C762.927 220.396 764.214 220.17 765.215 219.719C766.227 219.279 767.096 218.663 767.839 217.882C768.587 217.101 769.219 216.155 769.742 215.039C770.259 213.922 770.82 212.69 771.414 211.354L773.872 204.875L750.871 147.488H758.351Z" fill="white"/>
<path fill-rule="evenodd" clip-rule="evenodd" d="M810.601 147.488L825.341 196.834H825.566L839.63 147.488H847.555L861.63 196.834H861.855L876.59 147.488H884.07L865.54 205.1H857.829L843.65 156.64H843.43L829.361 205.1H821.656L803.126 147.488H810.601Z" fill="white"/>
<path fill-rule="evenodd" clip-rule="evenodd" d="M898.475 125.383V157.426H898.695C900.031 153.923 902.418 151.118 905.845 148.995C909.266 146.872 913.017 145.816 917.12 145.816C921.14 145.816 924.5 146.327 927.217 147.372C929.94 148.412 932.118 149.886 933.751 151.789C935.39 153.681 936.545 156.007 937.211 158.763C937.887 161.518 938.217 164.609 938.217 168.03V205.1H931.183V169.147C931.183 166.688 930.957 164.4 930.517 162.283C930.066 160.154 929.285 158.317 928.169 156.75C927.052 155.193 925.545 153.961 923.648 153.065C921.75 152.174 919.391 151.728 916.559 151.728C913.726 151.728 911.213 152.234 909.024 153.235C906.824 154.242 904.965 155.622 903.436 157.366C901.912 159.115 900.719 161.205 899.872 163.619C899.014 166.039 898.546 168.663 898.475 171.49V205.1H891.44V125.383H898.475Z" fill="white"/>
<path fill-rule="evenodd" clip-rule="evenodd" d="M991.414 164.571C990.561 162.112 989.351 159.934 987.789 158.037C986.227 156.139 984.324 154.61 982.091 153.461C979.864 152.3 977.334 151.728 974.501 151.728C971.597 151.728 969.029 152.3 966.801 153.461C964.568 154.61 962.671 156.139 961.103 158.037C959.541 159.934 958.298 162.129 957.363 164.626C956.434 167.117 955.818 169.669 955.526 172.271H992.811C992.739 169.592 992.277 167.024 991.414 164.571ZM956.582 186.065C957.286 188.782 958.425 191.218 959.987 193.374C961.554 195.536 963.523 197.323 965.905 198.731C968.286 200.15 971.157 200.86 974.501 200.86C979.643 200.86 983.658 199.512 986.562 196.834C989.461 194.155 991.474 190.58 992.585 186.12H999.625C998.134 192.67 995.401 197.73 991.413 201.3C987.437 204.875 981.794 206.657 974.501 206.657C969.964 206.657 966.031 205.865 962.726 204.264C959.415 202.664 956.714 200.464 954.63 197.67C952.545 194.887 951.005 191.642 949.993 187.957C948.992 184.272 948.492 180.383 948.492 176.291C948.492 172.496 948.992 168.773 949.993 165.126C951.005 161.48 952.545 158.224 954.63 155.358C956.714 152.498 959.415 150.188 962.726 148.434C966.031 146.685 969.964 145.816 974.501 145.816C979.115 145.816 983.059 146.745 986.337 148.604C989.609 150.463 992.277 152.905 994.323 155.914C996.369 158.928 997.837 162.387 998.728 166.298C999.625 170.208 999.999 174.174 999.85 178.189H955.526C955.526 180.719 955.873 183.348 956.582 186.065Z" fill="white"/>
<path fill-rule="evenodd" clip-rule="evenodd" d="M1015.7 147.488V160.99H1015.93C1017.71 156.31 1020.49 152.702 1024.24 150.166C1028.01 147.636 1032.49 146.481 1037.7 146.707V153.741C1034.5 153.593 1031.59 154.022 1028.99 155.023C1026.38 156.029 1024.14 157.459 1022.24 159.318C1020.33 161.188 1018.87 163.399 1017.82 165.968C1016.78 168.536 1016.26 171.341 1016.26 174.394V205.1H1009.23V147.488H1015.7Z" fill="white"/>
<path fill-rule="evenodd" clip-rule="evenodd" d="M1082.31 164.571C1081.44 162.112 1080.24 159.934 1078.68 158.037C1077.11 156.139 1075.22 154.61 1072.98 153.461C1070.75 152.3 1068.21 151.728 1065.39 151.728C1062.48 151.728 1059.92 152.3 1057.68 153.461C1055.45 154.61 1053.55 156.139 1051.99 158.037C1050.42 159.934 1049.17 162.129 1048.25 164.626C1047.32 167.117 1046.7 169.669 1046.4 172.271H1083.7C1083.63 169.592 1083.15 167.024 1082.31 164.571ZM1047.47 186.065C1048.18 188.782 1049.31 191.218 1050.87 193.374C1052.44 195.536 1054.41 197.323 1056.79 198.731C1059.17 200.15 1062.03 200.86 1065.39 200.86C1070.52 200.86 1074.54 199.512 1077.44 196.834C1080.35 194.155 1082.36 190.58 1083.48 186.12H1090.51C1089.02 192.67 1086.28 197.73 1082.31 201.3C1078.32 204.875 1072.68 206.657 1065.39 206.657C1060.84 206.657 1056.92 205.865 1053.61 204.264C1050.29 202.664 1047.6 200.464 1045.51 197.67C1043.43 194.887 1041.88 191.642 1040.88 187.957C1039.87 184.272 1039.37 180.383 1039.37 176.291C1039.37 172.496 1039.87 168.773 1040.88 165.126C1041.88 161.48 1043.43 158.224 1045.51 155.358C1047.6 152.498 1050.29 150.188 1053.61 148.434C1056.92 146.685 1060.84 145.816 1065.39 145.816C1070 145.816 1073.95 146.745 1077.22 148.604C1080.5 150.463 1083.15 152.905 1085.2 155.914C1087.25 158.928 1088.72 162.387 1089.62 166.298C1090.51 170.208 1090.88 174.174 1090.73 178.189H1046.4C1046.4 180.719 1046.76 183.348 1047.47 186.065Z" fill="white"/>
<path fill-rule="evenodd" clip-rule="evenodd" d="M1093.75 147.372H1107.7L1122.77 190.47H1123L1137.62 147.372H1150.91L1128.36 208.224C1127.32 210.826 1126.31 213.317 1125.31 215.704C1124.32 218.086 1123.1 220.187 1121.66 222.013C1120.22 223.833 1118.43 225.285 1116.28 226.369C1114.14 227.441 1111.39 227.986 1108.03 227.986C1105.05 227.986 1102.12 227.766 1099.21 227.315V216.595C1100.25 216.744 1101.27 216.914 1102.23 217.101C1103.2 217.283 1104.2 217.376 1105.25 217.376C1106.73 217.376 1107.96 217.195 1108.93 216.821C1109.89 216.447 1110.7 215.908 1111.33 215.198C1111.96 214.494 1112.5 213.658 1112.95 212.69C1113.39 211.722 1113.8 210.606 1114.18 209.346L1115.63 204.875L1093.75 147.372Z" fill="white"/>
<path fill-rule="evenodd" clip-rule="evenodd" d="M1184.41 196.614C1187.24 196.614 1189.69 196.02 1191.78 194.826C1193.86 193.638 1195.57 192.071 1196.92 190.135C1198.25 188.204 1199.24 186.021 1199.87 183.606C1200.5 181.186 1200.83 178.711 1200.83 176.181C1200.83 173.723 1200.5 171.27 1199.87 168.811C1199.24 166.353 1198.25 164.18 1196.92 162.283C1195.57 160.38 1193.86 158.84 1191.78 157.646C1189.69 156.458 1187.24 155.859 1184.41 155.859C1181.58 155.859 1179.12 156.458 1177.04 157.646C1174.95 158.84 1173.24 160.38 1171.91 162.283C1170.56 164.18 1169.57 166.353 1168.94 168.811C1168.3 171.27 1168 173.723 1168 176.181C1168 178.711 1168.3 181.186 1168.94 183.606C1169.57 186.021 1170.56 188.204 1171.91 190.135C1173.24 192.071 1174.95 193.638 1177.04 194.826C1179.12 196.02 1181.58 196.614 1184.41 196.614ZM1184.41 206.657C1179.79 206.657 1175.67 205.898 1172.07 204.369C1168.46 202.845 1165.41 200.744 1162.91 198.066C1160.42 195.382 1158.52 192.186 1157.22 188.463C1155.92 184.745 1155.26 180.647 1155.26 176.181C1155.26 171.787 1155.92 167.733 1157.22 164.01C1158.52 160.292 1160.42 157.085 1162.91 154.407C1165.41 151.728 1168.46 149.627 1172.07 148.104C1175.67 146.575 1179.79 145.816 1184.41 145.816C1189.02 145.816 1193.13 146.575 1196.74 148.104C1200.35 149.627 1203.4 151.728 1205.89 154.407C1208.39 157.085 1210.29 160.292 1211.59 164.01C1212.9 167.733 1213.54 171.787 1213.54 176.181C1213.54 180.647 1212.9 184.745 1211.59 188.463C1210.29 192.186 1208.39 195.382 1205.89 198.066C1203.4 200.744 1200.35 202.845 1196.74 204.369C1193.13 205.898 1189.02 206.657 1184.41 206.657Z" fill="white"/>
<path fill-rule="evenodd" clip-rule="evenodd" d="M1274.73 205.1H1262.23V197.059H1262C1260.44 199.963 1258.11 202.284 1255.03 204.039C1251.94 205.788 1248.79 206.657 1245.59 206.657C1238 206.657 1232.5 204.776 1229.12 201.025C1225.74 197.263 1224.04 191.587 1224.04 183.991V147.372H1236.77V182.765C1236.77 187.825 1237.74 191.405 1239.67 193.49C1241.61 195.574 1244.32 196.614 1247.82 196.614C1250.51 196.614 1252.74 196.207 1254.52 195.382C1256.3 194.562 1257.76 193.468 1258.87 192.093C1259.99 190.718 1260.79 189.062 1261.28 187.121C1261.77 185.185 1262 183.1 1262 180.867V147.372H1274.73V205.1Z" fill="white"/>
<path fill-rule="evenodd" clip-rule="evenodd" d="M1288.13 205.1H1295.16V125.383H1288.13V205.1Z" fill="white"/>
<path fill-rule="evenodd" clip-rule="evenodd" d="M1324.08 153.851C1321.55 155.265 1319.44 157.124 1317.76 159.434C1316.09 161.738 1314.83 164.367 1313.97 167.304C1313.11 170.241 1312.68 173.239 1312.68 176.291C1312.68 179.344 1313.11 182.336 1313.97 185.278C1314.83 188.226 1316.09 190.844 1317.76 193.154C1319.44 195.459 1321.55 197.323 1324.08 198.731C1326.61 200.15 1329.55 200.86 1332.9 200.86C1336.24 200.86 1339.18 200.15 1341.72 198.731C1344.24 197.323 1346.35 195.459 1348.02 193.154C1349.7 190.844 1350.96 188.226 1351.82 185.278C1352.68 182.336 1353.1 179.344 1353.1 176.291C1353.1 173.239 1352.68 170.241 1351.82 167.304C1350.96 164.367 1349.7 161.738 1348.02 159.434C1346.35 157.124 1344.24 155.265 1341.72 153.851C1339.18 152.438 1336.24 151.728 1332.9 151.728C1329.55 151.728 1326.61 152.438 1324.08 153.851ZM1344.56 148.269C1347.95 149.908 1350.79 152.097 1353.1 154.858C1355.41 157.608 1357.15 160.831 1358.35 164.516C1359.54 168.201 1360.14 172.122 1360.14 176.291C1360.14 180.46 1359.54 184.387 1358.35 188.072C1357.15 191.757 1355.41 194.975 1353.1 197.73C1350.79 200.48 1347.95 202.664 1344.56 204.264C1341.17 205.865 1337.28 206.657 1332.9 206.657C1328.5 206.657 1324.61 205.865 1321.23 204.264C1317.84 202.664 1314.99 200.48 1312.68 197.73C1310.38 194.975 1308.63 191.757 1307.44 188.072C1306.25 184.387 1305.66 180.46 1305.66 176.291C1305.66 172.122 1306.25 168.201 1307.44 164.516C1308.63 160.831 1310.38 157.608 1312.68 154.858C1314.99 152.097 1317.84 149.908 1321.23 148.269C1324.61 146.63 1328.5 145.816 1332.9 145.816C1337.28 145.816 1341.17 146.63 1344.56 148.269Z" fill="white"/>
<path fill-rule="evenodd" clip-rule="evenodd" d="M1386.04 153.851C1383.5 155.265 1381.41 157.124 1379.74 159.434C1378.06 161.738 1376.79 164.367 1375.93 167.304C1375.08 170.241 1374.65 173.239 1374.65 176.291C1374.65 179.344 1375.08 182.336 1375.93 185.278C1376.79 188.226 1378.06 190.844 1379.74 193.154C1381.41 195.459 1383.5 197.323 1386.04 198.731C1388.57 200.15 1391.51 200.86 1394.86 200.86C1398.21 200.86 1401.15 200.15 1403.68 198.731C1406.21 197.323 1408.32 195.459 1410 193.154C1411.66 190.844 1412.93 188.226 1413.79 185.278C1414.64 182.336 1415.07 179.344 1415.07 176.291C1415.07 173.239 1414.64 170.241 1413.79 167.304C1412.93 164.367 1411.66 161.738 1410 159.434C1408.32 157.124 1406.21 155.265 1403.68 153.851C1401.15 152.438 1398.21 151.728 1394.86 151.728C1391.51 151.728 1388.57 152.438 1386.04 153.851ZM1406.53 148.269C1409.92 149.908 1412.77 152.097 1415.07 154.858C1417.38 157.608 1419.13 160.831 1420.32 164.516C1421.51 168.201 1422.1 172.122 1422.1 176.291C1422.1 180.46 1421.51 184.387 1420.32 188.072C1419.13 191.757 1417.38 194.975 1415.07 197.73C1412.77 200.48 1409.92 202.664 1406.53 204.264C1403.14 205.865 1399.26 206.657 1394.86 206.657C1390.47 206.657 1386.58 205.865 1383.2 204.264C1379.81 202.664 1376.96 200.48 1374.65 197.73C1372.34 194.975 1370.59 191.757 1369.4 188.072C1368.22 184.387 1367.62 180.46 1367.62 176.291C1367.62 172.122 1368.22 168.201 1369.4 164.516C1370.59 160.831 1372.34 157.608 1374.65 154.858C1376.96 152.097 1379.81 149.908 1383.2 148.269C1386.58 146.63 1390.47 145.816 1394.86 145.816C1399.26 145.816 1403.14 146.63 1406.53 148.269Z" fill="white"/>
<path fill-rule="evenodd" clip-rule="evenodd" d="M1439.53 125.383V175.4L1471.45 147.488H1480.83L1456.27 168.811L1482.5 205.1H1473.69L1450.91 173.723L1439.53 183.21V205.1H1432.49V125.383H1439.53Z" fill="white"/>
<path fill-rule="evenodd" clip-rule="evenodd" d="M1474.64 124.767H1487.36V127.143H1482.37V140.475H1479.62V127.143H1474.64V124.767Z" fill="white"/>
<path fill-rule="evenodd" clip-rule="evenodd" d="M1489.12 124.767H1492.99L1497.33 137.06H1497.38L1501.59 124.767H1505.42V140.475H1502.81V128.348H1502.77L1498.4 140.475H1496.14L1491.79 128.348H1491.74V140.475H1489.12V124.767Z" fill="white"/>
<path fill-rule="evenodd" clip-rule="evenodd" d="M260.634 3.38794H397.986L497.602 100.672H356.862L260.634 3.38794Z" fill="white"/>
<path fill-rule="evenodd" clip-rule="evenodd" d="M234.817 3.38794H96.844L0 100.672H137.967L234.817 3.38794Z" fill="white"/>
<path fill-rule="evenodd" clip-rule="evenodd" d="M253.391 12.0559L348.903 107.58V242L253.391 148.263V12.0559Z" fill="white"/>
<path fill-rule="evenodd" clip-rule="evenodd" d="M242.775 12.0559V148.263L144.606 242V110.176L242.775 12.0559Z" fill="white"/>
</svg>
